<?xml version="1.0" encoding="utf-8"?>
<svg viewBox="0 0 150 80" xmlns="http://www.w3.org/2000/svg">
  <path d="M 0.794 5.435 L 0.794 2.935 L 38.288 2.935 L 38.288 5.435 L 0.794 5.435 Z M 0.794 10.434 L 0.794 7.934 L 38.288 7.934 L 38.288 10.434 L 0.794 10.434 Z M 0.794 15.433 L 0.794 12.934 L 38.288 12.934 L 38.288 15.433 L 28.289 15.433 L 28.289 60.426 L 25.79 60.426 L 25.79 15.433 L 23.29 15.433 L 23.29 60.426 L 20.79 60.426 L 20.79 15.433 L 18.291 15.433 L 18.291 60.426 L 15.791 60.426 L 15.791 15.433 L 13.292 15.433 L 13.292 60.426 L 10.792 60.426 L 10.792 15.433 L 0.794 15.433 Z M 82.133 40.395 C 82.133 39.492 81.862 38.89 81.318 38.589 C 80.774 38.289 79.981 38.138 78.94 38.138 L 62.831 38.138 L 62.831 35.638 L 78.94 35.638 C 82.735 35.638 84.633 37.224 84.633 40.395 C 84.633 42.177 84.112 43.461 83.071 44.248 C 82.029 45.035 80.652 45.429 78.94 45.429 L 62.831 45.429 L 62.831 42.929 L 78.94 42.929 C 81.069 42.929 82.133 42.084 82.133 40.395 Z M 61.442 60.426 L 58.943 60.426 L 58.943 17.933 L 78.94 17.933 C 80.513 17.933 81.856 18.413 82.967 19.374 C 84.078 20.334 84.633 21.532 84.633 22.967 C 84.633 24.865 84.112 26.236 83.071 27.081 C 82.029 27.926 80.652 28.348 78.94 28.348 L 62.831 28.348 L 62.831 25.848 L 78.94 25.848 C 81.069 25.848 82.133 24.888 82.133 22.967 C 82.133 22.18 81.833 21.561 81.231 21.109 C 80.629 20.658 79.865 20.433 78.94 20.433 L 61.442 20.433 L 61.442 60.426 Z M 62.831 30.848 L 78.94 30.848 C 81.231 30.848 83.169 30.159 84.755 28.782 C 86.34 27.405 87.133 25.466 87.133 22.967 C 87.133 20.953 86.305 19.194 84.65 17.69 C 82.996 16.185 81.092 15.433 78.94 15.433 L 56.443 15.433 L 56.443 60.426 L 53.943 60.426 L 53.943 12.934 L 78.94 12.934 C 81.786 12.934 84.28 13.935 86.421 15.937 C 88.562 17.939 89.632 20.282 89.632 22.967 C 89.632 25.073 89.14 26.913 88.157 28.487 C 87.173 30.061 85.848 31.276 84.182 32.132 C 87.815 33.428 89.632 36.067 89.632 40.047 C 89.632 43.195 88.591 45.712 86.508 47.598 C 84.425 49.485 81.902 50.428 78.94 50.428 L 62.831 50.428 L 62.831 47.928 L 78.94 47.928 C 81.231 47.928 83.169 47.24 84.755 45.863 C 86.34 44.485 87.133 42.547 87.133 40.047 C 87.133 38.358 86.531 36.865 85.327 35.569 C 84.124 34.273 82.353 33.521 80.016 33.312 C 79.784 33.336 79.426 33.347 78.94 33.347 L 62.831 33.347 L 62.831 30.848 Z M 94.632 22.967 C 94.632 26.207 93.486 29.135 91.195 31.75 C 93.486 34.296 94.632 37.062 94.632 40.047 C 94.632 42.941 93.908 45.573 92.462 47.946 C 91.015 50.318 89.094 52.158 86.699 53.466 C 84.303 54.773 81.717 55.427 78.94 55.427 L 62.831 55.427 L 62.831 52.927 L 78.94 52.927 C 82.55 52.927 85.651 51.718 88.244 49.3 C 90.836 46.881 92.132 43.797 92.132 40.047 C 92.132 38.705 91.791 37.218 91.108 35.586 C 90.425 33.955 89.482 32.711 88.278 31.854 C 90.847 29.447 92.132 26.485 92.132 22.967 C 92.132 19.588 90.813 16.654 88.174 14.166 C 85.536 11.678 82.457 10.434 78.94 10.434 L 51.444 10.434 L 51.444 60.426 L 48.944 60.426 L 48.944 7.934 L 78.94 7.934 C 81.694 7.934 84.28 8.611 86.699 9.965 C 89.117 11.319 91.044 13.159 92.479 15.485 C 93.914 17.811 94.632 20.305 94.632 22.967 Z M 94.041 31.889 C 96.101 29.135 97.131 26.161 97.131 22.967 C 97.131 19.842 96.304 16.932 94.649 14.236 C 92.994 11.539 90.766 9.398 87.966 7.813 C 85.165 6.228 82.157 5.435 78.94 5.435 L 46.445 5.435 L 46.445 60.426 L 43.945 60.426 L 43.945 2.935 L 78.94 2.935 C 82.596 2.935 86.016 3.838 89.198 5.643 C 92.381 7.448 94.915 9.896 96.801 12.986 C 98.688 16.076 99.631 19.403 99.631 22.967 C 99.631 26.369 98.67 29.355 96.749 31.924 C 98.67 34.585 99.631 37.293 99.631 40.047 C 99.631 43.149 99.075 45.99 97.964 48.57 C 96.853 51.151 95.355 53.298 93.468 55.01 C 91.582 56.723 89.389 58.054 86.89 59.003 C 84.39 59.952 81.74 60.426 78.94 60.426 L 62.831 60.426 L 62.831 57.927 L 78.94 57.927 C 81.37 57.927 83.696 57.47 85.918 56.555 C 88.139 55.641 90.072 54.397 91.715 52.823 C 93.359 51.249 94.672 49.352 95.656 47.13 C 96.639 44.908 97.131 42.547 97.131 40.047 C 97.131 38.937 96.871 37.6 96.35 36.038 C 95.829 34.475 95.06 33.093 94.041 31.889 Z M 128.48 25.432 L 124.28 25.432 C 122.498 25.432 121.213 24.975 120.426 24.06 C 119.639 23.146 119.246 21.937 119.246 20.433 C 119.246 17.1 121.734 15.433 126.71 15.433 C 131.385 15.433 134.903 16.128 137.264 17.516 L 135.25 19.044 C 133.63 18.303 130.783 17.933 126.71 17.933 C 124.719 17.933 123.383 18.153 122.7 18.593 C 122.017 19.032 121.676 19.646 121.676 20.433 C 121.676 21.219 121.861 21.833 122.231 22.272 C 122.602 22.712 123.284 22.932 124.28 22.932 L 128.585 22.932 C 131.709 22.932 134.527 23.464 137.038 24.529 C 139.549 25.594 141.615 27.046 143.235 28.886 C 144.855 30.726 146.093 32.844 146.95 35.239 C 147.806 37.635 148.234 40.198 148.234 42.929 C 148.234 45.151 147.922 47.257 147.297 49.247 C 146.672 51.238 145.729 53.066 144.467 54.733 C 143.206 56.399 141.69 57.84 139.92 59.055 C 138.149 60.27 136.043 61.219 133.601 61.902 C 131.159 62.584 128.515 62.926 125.668 62.926 C 121.201 62.926 117.018 62.249 113.118 60.895 C 109.218 59.541 105.972 57.649 103.38 55.219 L 105.394 53.726 C 107.754 55.855 110.711 57.504 114.264 58.673 C 117.817 59.842 121.618 60.426 125.668 60.426 C 128.839 60.426 131.703 59.969 134.261 59.055 C 136.818 58.141 138.924 56.885 140.579 55.288 C 142.234 53.691 143.507 51.84 144.398 49.733 C 145.289 47.627 145.735 45.359 145.735 42.929 C 145.735 39.712 145.087 36.801 143.79 34.198 C 142.494 31.594 140.521 29.482 137.871 27.862 C 135.221 26.242 132.091 25.432 128.48 25.432 Z M 124.28 27.931 L 128.237 27.931 C 132.936 27.931 136.61 29.366 139.26 32.236 C 141.91 35.106 143.235 38.67 143.235 42.929 C 143.235 47.257 141.696 50.839 138.618 53.674 C 135.539 56.509 131.223 57.927 125.668 57.927 C 121.965 57.927 118.505 57.417 115.288 56.399 C 112.071 55.381 109.398 53.946 107.268 52.094 L 109.213 50.532 C 111.11 52.083 113.5 53.286 116.382 54.143 C 119.263 54.999 122.359 55.427 125.668 55.427 C 130.552 55.427 134.284 54.258 136.864 51.921 C 139.445 49.583 140.735 46.586 140.735 42.929 C 140.735 39.318 139.653 36.333 137.489 33.972 C 135.325 31.611 132.23 30.431 128.203 30.431 L 124.28 30.431 C 120.901 30.431 118.366 29.505 116.677 27.654 C 114.987 25.802 114.142 23.395 114.142 20.433 C 114.142 17.47 115.19 15.063 117.284 13.211 C 119.379 11.36 122.521 10.434 126.71 10.434 C 129.649 10.434 132.38 10.775 134.903 11.458 C 137.426 12.141 139.509 13.119 141.152 14.392 L 139.173 15.919 C 136.28 13.929 132.126 12.934 126.71 12.934 C 123.215 12.934 120.663 13.622 119.055 14.999 C 117.446 16.376 116.642 18.187 116.642 20.433 C 116.642 22.701 117.238 24.518 118.43 25.883 C 119.622 27.249 121.572 27.931 124.28 27.931 Z M 124.28 32.931 L 128.099 32.931 C 131.478 32.931 134.012 33.868 135.701 35.743 C 137.391 37.617 138.236 40.013 138.236 42.929 C 138.236 45.891 137.189 48.299 135.094 50.15 C 132.999 52.002 129.857 52.927 125.668 52.927 C 122.729 52.927 119.992 52.586 117.458 51.903 C 114.923 51.221 112.835 50.243 111.191 48.97 L 113.17 47.442 C 116.063 49.433 120.229 50.428 125.668 50.428 C 129.163 50.428 131.715 49.739 133.323 48.362 C 134.932 46.985 135.736 45.174 135.736 42.929 C 135.736 40.684 135.134 38.873 133.931 37.496 C 132.727 36.119 130.772 35.43 128.064 35.43 L 124.28 35.43 C 119.535 35.43 115.826 34.013 113.153 31.177 C 110.48 28.342 109.143 24.761 109.143 20.433 C 109.143 16.104 110.682 12.523 113.76 9.688 C 116.839 6.852 121.155 5.435 126.71 5.435 C 130.413 5.435 133.867 5.944 137.073 6.962 C 140.278 7.981 142.946 9.416 145.075 11.267 L 143.131 12.83 C 141.233 11.279 138.849 10.075 135.979 9.219 C 133.109 8.363 130.02 7.934 126.71 7.934 C 121.826 7.934 118.094 9.103 115.514 11.441 C 112.933 13.778 111.643 16.776 111.643 20.433 C 111.643 24.066 112.731 27.058 114.906 29.407 C 117.082 31.756 120.206 32.931 124.28 32.931 Z M 124.28 37.93 L 128.099 37.93 C 129.881 37.93 131.165 38.393 131.952 39.318 C 132.739 40.244 133.132 41.448 133.132 42.929 C 133.132 46.262 130.644 47.928 125.668 47.928 C 120.97 47.928 117.44 47.234 115.08 45.845 L 117.093 44.318 C 118.713 45.058 121.572 45.429 125.668 45.429 C 127.659 45.429 128.995 45.209 129.678 44.769 C 130.361 44.329 130.702 43.716 130.702 42.929 C 130.702 42.165 130.511 41.558 130.129 41.106 C 129.748 40.655 129.047 40.429 128.029 40.429 L 124.28 40.429 C 121.086 40.429 118.198 39.909 115.618 38.867 C 113.037 37.826 110.919 36.391 109.265 34.562 C 107.61 32.734 106.343 30.616 105.463 28.209 C 104.584 25.802 104.144 23.21 104.144 20.433 C 104.144 18.211 104.456 16.104 105.081 14.114 C 105.706 12.124 106.649 10.295 107.911 8.629 C 109.172 6.962 110.688 5.522 112.459 4.307 C 114.229 3.091 116.335 2.143 118.777 1.46 C 121.219 0.777 123.863 0.436 126.71 0.436 C 131.177 0.436 135.354 1.113 139.243 2.467 C 143.131 3.821 146.371 5.713 148.963 8.143 L 146.95 9.636 C 144.589 7.506 141.638 5.857 138.097 4.688 C 134.556 3.52 130.76 2.935 126.71 2.935 C 123.539 2.935 120.675 3.392 118.117 4.307 C 115.56 5.221 113.454 6.476 111.799 8.073 C 110.144 9.67 108.871 11.522 107.98 13.628 C 107.089 15.734 106.644 18.002 106.644 20.433 C 106.644 23.696 107.303 26.635 108.622 29.251 C 109.942 31.866 111.955 33.966 114.663 35.552 C 117.371 37.137 120.577 37.93 124.28 37.93 Z" style="fill: rgb(216, 216, 216); white-space: pre;"/>
  <path d="M 9.92 68.668 L 9.92 69.563 L 7.621 69.563 L 7.621 77.101 L 6.52 77.101 L 6.52 69.563 L 4.209 69.563 L 4.209 68.668 L 9.92 68.668 Z M 19.716 77.101 L 17.707 73.653 L 16.376 73.653 L 16.376 77.101 L 15.275 77.101 L 15.275 68.668 L 17.997 68.668 C 18.635 68.668 19.173 68.776 19.613 68.994 C 20.052 69.212 20.381 69.506 20.599 69.878 C 20.817 70.249 20.926 70.672 20.926 71.148 C 20.926 71.729 20.758 72.241 20.423 72.685 C 20.089 73.128 19.587 73.423 18.917 73.568 L 21.035 77.101 L 19.716 77.101 Z M 16.376 72.769 L 17.997 72.769 C 18.594 72.769 19.042 72.622 19.341 72.328 C 19.639 72.033 19.788 71.64 19.788 71.148 C 19.788 70.648 19.641 70.261 19.347 69.986 C 19.052 69.712 18.602 69.575 17.997 69.575 L 16.376 69.575 L 16.376 72.769 Z M 30.454 77.186 C 29.672 77.186 28.958 77.002 28.313 76.635 C 27.667 76.268 27.157 75.756 26.782 75.099 C 26.407 74.441 26.219 73.701 26.219 72.878 C 26.219 72.056 26.407 71.315 26.782 70.658 C 27.157 70.001 27.667 69.488 28.313 69.121 C 28.958 68.754 29.672 68.571 30.454 68.571 C 31.245 68.571 31.963 68.754 32.608 69.121 C 33.253 69.488 33.762 69.999 34.133 70.652 C 34.504 71.305 34.689 72.047 34.689 72.878 C 34.689 73.709 34.504 74.451 34.133 75.105 C 33.762 75.758 33.253 76.268 32.608 76.635 C 31.963 77.002 31.245 77.186 30.454 77.186 Z M 30.454 76.23 C 31.043 76.23 31.574 76.093 32.045 75.819 C 32.517 75.544 32.888 75.153 33.159 74.645 C 33.429 74.137 33.564 73.548 33.564 72.878 C 33.564 72.201 33.429 71.61 33.159 71.106 C 32.888 70.602 32.519 70.212 32.051 69.938 C 31.584 69.664 31.051 69.527 30.454 69.527 C 29.857 69.527 29.325 69.664 28.857 69.938 C 28.389 70.212 28.02 70.602 27.75 71.106 C 27.48 71.61 27.345 72.201 27.345 72.878 C 27.345 73.548 27.48 74.137 27.75 74.645 C 28.02 75.153 28.391 75.544 28.863 75.819 C 29.335 76.093 29.865 76.23 30.454 76.23 Z M 45.779 71.136 C 45.779 71.838 45.539 72.421 45.06 72.884 C 44.58 73.348 43.847 73.58 42.863 73.58 L 41.242 73.58 L 41.242 77.101 L 40.141 77.101 L 40.141 68.668 L 42.863 68.668 C 43.815 68.668 44.539 68.897 45.035 69.357 C 45.531 69.817 45.779 70.41 45.779 71.136 Z M 42.863 72.673 C 43.476 72.673 43.928 72.54 44.219 72.273 C 44.509 72.007 44.654 71.628 44.654 71.136 C 44.654 70.095 44.057 69.575 42.863 69.575 L 41.242 69.575 L 41.242 72.673 L 42.863 72.673 Z M 62.599 72.757 C 62.906 72.806 63.186 72.931 63.44 73.132 C 63.694 73.334 63.896 73.584 64.045 73.883 C 64.194 74.181 64.269 74.5 64.269 74.839 C 64.269 75.266 64.16 75.651 63.942 75.994 C 63.724 76.337 63.408 76.607 62.992 76.805 C 62.577 77.002 62.087 77.101 61.522 77.101 L 58.376 77.101 L 58.376 68.668 L 61.401 68.668 C 61.974 68.668 62.462 68.762 62.865 68.952 C 63.269 69.141 63.571 69.398 63.773 69.72 C 63.974 70.043 64.075 70.406 64.075 70.809 C 64.075 71.309 63.94 71.723 63.67 72.05 C 63.4 72.376 63.043 72.612 62.599 72.757 Z M 59.477 72.31 L 61.329 72.31 C 61.845 72.31 62.244 72.189 62.526 71.947 C 62.809 71.705 62.95 71.37 62.95 70.942 C 62.95 70.515 62.809 70.18 62.526 69.938 C 62.244 69.696 61.837 69.575 61.304 69.575 L 59.477 69.575 L 59.477 72.31 Z M 61.425 76.194 C 61.974 76.194 62.401 76.065 62.708 75.807 C 63.014 75.548 63.168 75.189 63.168 74.73 C 63.168 74.262 63.006 73.893 62.684 73.623 C 62.361 73.352 61.929 73.217 61.389 73.217 L 59.477 73.217 L 59.477 76.194 L 61.425 76.194 Z M 70.894 69.563 L 70.894 72.382 L 73.967 72.382 L 73.967 73.29 L 70.894 73.29 L 70.894 76.194 L 74.33 76.194 L 74.33 77.101 L 69.793 77.101 L 69.793 68.655 L 74.33 68.655 L 74.33 69.563 L 70.894 69.563 Z M 84.985 75.226 L 81.307 75.226 L 80.629 77.101 L 79.468 77.101 L 82.517 68.716 L 83.788 68.716 L 86.825 77.101 L 85.663 77.101 L 84.985 75.226 Z M 84.671 74.33 L 83.146 70.071 L 81.622 74.33 L 84.671 74.33 Z M 93.232 68.668 L 93.232 74.004 C 93.232 74.754 93.416 75.31 93.783 75.673 C 94.15 76.036 94.66 76.218 95.314 76.218 C 95.959 76.218 96.465 76.036 96.832 75.673 C 97.199 75.31 97.383 74.754 97.383 74.004 L 97.383 68.668 L 98.484 68.668 L 98.484 73.992 C 98.484 74.693 98.343 75.284 98.06 75.764 C 97.778 76.244 97.397 76.601 96.917 76.835 C 96.437 77.069 95.898 77.186 95.302 77.186 C 94.705 77.186 94.166 77.069 93.686 76.835 C 93.206 76.601 92.827 76.244 92.549 75.764 C 92.27 75.284 92.131 74.693 92.131 73.992 L 92.131 68.668 L 93.232 68.668 Z M 114.226 77.186 C 113.669 77.186 113.171 77.087 112.731 76.89 C 112.292 76.692 111.947 76.418 111.697 76.067 C 111.447 75.716 111.318 75.31 111.31 74.851 L 112.483 74.851 C 112.524 75.246 112.687 75.579 112.973 75.849 C 113.26 76.119 113.677 76.254 114.226 76.254 C 114.75 76.254 115.164 76.123 115.466 75.861 C 115.769 75.599 115.92 75.262 115.92 74.851 C 115.92 74.528 115.831 74.266 115.654 74.064 C 115.476 73.862 115.254 73.709 114.988 73.604 C 114.722 73.499 114.363 73.387 113.911 73.266 C 113.355 73.12 112.909 72.975 112.574 72.83 C 112.239 72.685 111.953 72.457 111.715 72.146 C 111.477 71.836 111.358 71.418 111.358 70.894 C 111.358 70.434 111.475 70.027 111.709 69.672 C 111.943 69.317 112.272 69.043 112.695 68.849 C 113.119 68.655 113.605 68.559 114.153 68.559 C 114.944 68.559 115.591 68.756 116.095 69.152 C 116.599 69.547 116.884 70.071 116.948 70.725 L 115.738 70.725 C 115.698 70.402 115.529 70.118 115.23 69.872 C 114.932 69.625 114.536 69.502 114.044 69.502 C 113.585 69.502 113.209 69.621 112.919 69.859 C 112.629 70.097 112.483 70.43 112.483 70.858 C 112.483 71.164 112.57 71.414 112.744 71.608 C 112.917 71.801 113.131 71.949 113.385 72.05 C 113.639 72.15 113.996 72.265 114.456 72.394 C 115.012 72.548 115.46 72.699 115.799 72.848 C 116.138 72.997 116.428 73.227 116.67 73.538 C 116.912 73.848 117.033 74.27 117.033 74.802 C 117.033 75.214 116.924 75.601 116.706 75.964 C 116.489 76.327 116.166 76.621 115.738 76.847 C 115.311 77.073 114.807 77.186 114.226 77.186 Z M 123.755 68.668 L 123.755 77.101 L 122.654 77.101 L 122.654 68.668 L 123.755 68.668 Z M 134.821 68.668 L 134.821 69.563 L 132.522 69.563 L 132.522 77.101 L 131.421 77.101 L 131.421 69.563 L 129.11 69.563 L 129.11 68.668 L 134.821 68.668 Z M 141.277 69.563 L 141.277 72.382 L 144.35 72.382 L 144.35 73.29 L 141.277 73.29 L 141.277 76.194 L 144.713 76.194 L 144.713 77.101 L 140.176 77.101 L 140.176 68.655 L 144.713 68.655 L 144.713 69.563 L 141.277 69.563 Z" style="fill: rgb(208, 202, 202); white-space: pre;"/>
</svg>